<?xml version="1.0" encoding="UTF-8" standalone="no"?>
<svg width="128px" height="178px" viewBox="0 0 128 178" version="1.1" xmlns="http://www.w3.org/2000/svg" xmlns:xlink="http://www.w3.org/1999/xlink">
    <!-- Generator: Sketch 41.1 (35376) - http://www.bohemiancoding.com/sketch -->
    <title>stickman-3</title>
    <desc>Created with Sketch.</desc>
    <defs></defs>
    <g id="stickmen" stroke="none" stroke-width="1" fill="none" fill-rule="evenodd">
        <g id="stickman-3" fill="#000000">
            <path d="M62.5,42 C70.5970037,42 77,34.3164044 77,25 C77,15.6835956 70.5970037,8 62.5,8 C54.4029963,8 48,15.6835956 48,25 C48,34.3164044 54.4029963,42 62.5,42 Z M62.5,38 C56.7898849,38 52,32.2521381 52,25 C52,17.7478619 56.7898849,12 62.5,12 C68.2101151,12 73,17.7478619 73,25 C73,32.2521381 68.2101151,38 62.5,38 Z" id="Oval"></path>
            <polygon id="Line" transform="translate(62.103202, 70.633010) rotate(25.000000) translate(-62.103202, -70.633010) " points="45.2490997 42.5149763 74.4851677 100.987112 78.9573036 98.7510442 49.7212357 40.2789083"></polygon>
            <g id="Group-2" transform="translate(83.686019, 138.877937) scale(-1, 1) rotate(1.000000) translate(-83.686019, -138.877937) translate(61.686019, 99.377937)">
                <polygon id="Line" points="0.406134178 72.1277677 17.1534852 78.7252091 18.6195833 75.0035755 1.87223225 68.4061342"></polygon>
                <polygon id="Line" points="38.9188612 0.33772234 13.3377223 77.0811388 18.0811388 78.6622777 43.6622777 1.91886117"></polygon>
            </g>
            <g id="Group-2-Copy" transform="translate(42.686019, 138.877937) rotate(1.000000) translate(-42.686019, -138.877937) translate(20.686019, 99.377937)">
                <polygon id="Line" points="0.406134178 72.1277677 17.1534852 78.7252091 18.6195833 75.0035755 1.87223225 68.4061342"></polygon>
                <polygon id="Line" points="38.9188612 0.33772234 13.3377223 77.0811388 18.0811388 78.6622777 43.6622777 1.91886117"></polygon>
            </g>
            <g id="Group" transform="translate(35.000000, 50.000000)">
                <polygon id="Line" points="23.8123475 0.688872286 0.688872286 19.1876525 3.18765248 22.3111277 26.3111277 3.81234752"></polygon>
                <polygon id="Line" points="0.689865239 20.8211583 23.3211583 38.8101348 25.8101348 35.6788417 3.17884174 17.6898652"></polygon>
                <polygon id="Line" points="24.9649906 36.7100567 14.7100567 44.0350094 17.0350094 47.2899433 27.2899433 39.9649906"></polygon>
            </g>
            <g id="Group-Copy" transform="translate(74.500000, 73.500000) scale(-1, 1) translate(-74.500000, -73.500000) translate(61.000000, 50.000000)">
                <polygon id="Line" points="23.8123475 0.688872286 0.688872286 19.1876525 3.18765248 22.3111277 26.3111277 3.81234752"></polygon>
                <polygon id="Line" points="0.964441693 19.9838124 20.50301 41.2916289 23.4511852 38.588249 3.91261691 17.2804325"></polygon>
                <polygon id="Line" points="20.9649906 35.7100567 10.7100567 43.0350094 13.0350094 46.2899433 23.2899433 38.9649906"></polygon>
            </g>
        </g>
    </g>
</svg>