<?xml version="1.0" encoding="UTF-8" standalone="no"?>
<svg width="128px" height="178px" viewBox="0 0 128 178" version="1.1" xmlns="http://www.w3.org/2000/svg" xmlns:xlink="http://www.w3.org/1999/xlink">
    <!-- Generator: Sketch 41.1 (35376) - http://www.bohemiancoding.com/sketch -->
    <title>stickman-4</title>
    <desc>Created with Sketch.</desc>
    <defs></defs>
    <g id="stickmen" stroke="none" stroke-width="1" fill="none" fill-rule="evenodd">
        <g id="stickman-4" fill="#000000">
            <path d="M62.5,42 C70.5970037,42 77,34.3164044 77,25 C77,15.6835956 70.5970037,8 62.5,8 C54.4029963,8 48,15.6835956 48,25 C48,34.3164044 54.4029963,42 62.5,42 Z M62.5,38 C56.7898849,38 52,32.2521381 52,25 C52,17.7478619 56.7898849,12 62.5,12 C68.2101151,12 73,17.7478619 73,25 C73,32.2521381 68.2101151,38 62.5,38 Z" id="Oval"></path>
            <polygon id="Line" transform="translate(62.103202, 70.633010) rotate(25.000000) translate(-62.103202, -70.633010) " points="45.2490997 42.5149763 74.4851677 100.987112 78.9573036 98.7510442 49.7212357 40.2789083"></polygon>
            <g id="Group-2-Copy" transform="translate(82.686019, 137.877937) scale(-1, 1) rotate(1.000000) translate(-82.686019, -137.877937) translate(60.686019, 98.377937)">
                <polygon id="Line" points="0.406134178 72.1277677 17.1534852 78.7252091 18.6195833 75.0035755 1.87223225 68.4061342"></polygon>
                <polygon id="Line" points="38.9188612 0.33772234 13.3377223 77.0811388 18.0811388 78.6622777 43.6622777 1.91886117"></polygon>
            </g>
            <g id="Group" transform="translate(22.000000, 50.000000)">
                <polygon id="Line" transform="translate(28.500000, 13.500000) rotate(-10.000000) translate(-28.500000, -13.500000) " points="38.8123475 2.68887229 15.6888723 21.1876525 18.1876525 24.3111277 41.3111277 5.81234752"></polygon>
                <polygon id="Line" transform="translate(16.497387, 36.972656) rotate(64.000000) translate(-16.497387, -36.972656) " points="3.93725217 29.5438145 26.5685452 47.532791 29.0575217 44.401498 6.42622867 26.4125215"></polygon>
                <polygon id="Line" transform="translate(8.327095, 48.856869) rotate(397.000000) translate(-8.327095, -48.856869) " points="12.2920857 43.5669256 2.03715184 50.8918783 4.36210461 54.1468122 14.6170385 46.8218594"></polygon>
            </g>
            <g id="Group-Copy" transform="translate(74.500000, 73.500000) scale(-1, 1) translate(-74.500000, -73.500000) translate(61.000000, 50.000000)">
                <polygon id="Line" points="23.8123475 0.688872286 0.688872286 19.1876525 3.18765248 22.3111277 26.3111277 3.81234752"></polygon>
                <polygon id="Line" points="0.964441693 19.9838124 20.50301 41.2916289 23.4511852 38.588249 3.91261691 17.2804325"></polygon>
                <polygon id="Line" points="20.9649906 35.7100567 10.7100567 43.0350094 13.0350094 46.2899433 23.2899433 38.9649906"></polygon>
            </g>
            <g id="Group-Copy" transform="translate(85.516182, 120.536685) scale(-1, 1) rotate(73.000000) translate(-85.516182, -120.536685) translate(62.016182, 89.536685)">
                <polygon id="Line-Copy" points="0.478808703 1.6635896 11.6635896 47.5211913 16.5211913 46.3364104 5.3364104 0.478808703"></polygon>
                <polygon id="Line-Copy-2" points="12 48 47 48 47 43 12 43"></polygon>
                <polygon id="Line-Copy-3" points="47 62 47 44 43 44 43 62"></polygon>
            </g>
        </g>
    </g>
</svg>