<?xml version="1.0" encoding="UTF-8" standalone="no"?>
<svg width="128px" height="178px" viewBox="0 0 128 178" version="1.1" xmlns="http://www.w3.org/2000/svg" xmlns:xlink="http://www.w3.org/1999/xlink">
    <!-- Generator: Sketch 41.1 (35376) - http://www.bohemiancoding.com/sketch -->
    <title>stickman-1</title>
    <desc>Created with Sketch.</desc>
    <defs></defs>
    <g id="pictogramm" stroke="none" stroke-width="1" fill="none" fill-rule="evenodd">
        <g id="stickman-1" fill="#000000">
            <path d="M36.5,46 C44.5970037,46 51,38.3164044 51,29 C51,19.6835956 44.5970037,12 36.5,12 C28.4029963,12 22,19.6835956 22,29 C22,38.3164044 28.4029963,46 36.5,46 Z M36.5,42 C30.7898849,42 26,36.2521381 26,29 C26,21.7478619 30.7898849,16 36.5,16 C42.2101151,16 47,21.7478619 47,29 C47,36.2521381 42.2101151,42 36.5,42 Z" id="Oval"></path>
            <polygon id="Line" points="25.4061342 170.127768 42.1534852 176.725209 43.6195833 173.003576 26.8722323 166.406134"></polygon>
            <polygon id="Line-Copy-3" points="110 160 110 142 106 142 106 160"></polygon>
            <polygon id="Line" points="35.145898 43.381966 64.381966 101.854102 68.854102 99.618034 39.618034 41.145898"></polygon>
            <polygon id="Line" points="63.9188612 98.3377223 38.3377223 175.081139 43.0811388 176.662278 68.6622777 99.9188612"></polygon>
            <polygon id="Line-Copy" points="63.4788087 99.6635896 74.6635896 145.521191 79.5211913 144.33641 68.3364104 98.4788087"></polygon>
            <polygon id="Line-Copy-2" points="75 146 110 146 110 141 75 141"></polygon>
            <polygon id="Line-Copy-4" points="-1.65860045 47.088472 42.3922248 61.6586004 43.9623533 56.911528 -0.088471974 42.3413996"></polygon>
        </g>
    </g>
</svg>