<?xml version="1.0" encoding="UTF-8" standalone="no"?>
<svg width="128px" height="178px" viewBox="0 0 128 178" version="1.1" xmlns="http://www.w3.org/2000/svg" xmlns:xlink="http://www.w3.org/1999/xlink">
    <!-- Generator: Sketch 41.1 (35376) - http://www.bohemiancoding.com/sketch -->
    <title>stickman-2</title>
    <desc>Created with Sketch.</desc>
    <defs></defs>
    <g id="pictogramm" stroke="none" stroke-width="1" fill="none" fill-rule="evenodd">
        <g id="stickman-2" fill="#000000">
            <path d="M36.5,46 C44.5970037,46 51,38.3164044 51,29 C51,19.6835956 44.5970037,12 36.5,12 C28.4029963,12 22,19.6835956 22,29 C22,38.3164044 28.4029963,46 36.5,46 Z M36.5,42 C30.7898849,42 26,36.2521381 26,29 C26,21.7478619 30.7898849,16 36.5,16 C42.2101151,16 47,21.7478619 47,29 C47,36.2521381 42.2101151,42 36.5,42 Z" id="Oval"></path>
            <polygon id="Line" points="35.145898 43.381966 64.381966 101.854102 68.854102 99.618034 39.618034 41.145898"></polygon>
            <g id="Group-2" transform="translate(75.285637, 139.012021) rotate(-41.000000) translate(-75.285637, -139.012021) translate(53.285637, 99.512021)">
                <polygon id="Line" points="0.406134178 72.1277677 17.1534852 78.7252091 18.6195833 75.0035755 1.87223225 68.4061342"></polygon>
                <polygon id="Line" points="38.9188612 0.33772234 13.3377223 77.0811388 18.0811388 78.6622777 43.6622777 1.91886117"></polygon>
            </g>
            <g id="Group-Copy" transform="translate(40.726458, 128.790655) rotate(73.000000) translate(-40.726458, -128.790655) translate(17.226458, 97.790655)">
                <polygon id="Line-Copy" points="0.478808703 1.6635896 11.6635896 47.5211913 16.5211913 46.3364104 5.3364104 0.478808703"></polygon>
                <polygon id="Line-Copy-2" points="12 48 47 48 47 43 12 43"></polygon>
                <polygon id="Line-Copy-3" points="47 62 47 44 43 44 43 62"></polygon>
            </g>
            <polygon id="Line-Copy-4" points="-1.65860045 47.088472 42.3922248 61.6586004 43.9623533 56.911528 -0.088471974 42.3413996"></polygon>
        </g>
    </g>
</svg>