<?xml version="1.0" standalone="no"?>
<!DOCTYPE svg PUBLIC "-//W3C//DTD SVG 20010904//EN"
 "http://www.w3.org/TR/2001/REC-SVG-20010904/DTD/svg10.dtd">
<svg version="1.0" xmlns="http://www.w3.org/2000/svg"
 width="16.000000pt" height="16.000000pt" viewBox="0 0 16.000000 16.000000"
 preserveAspectRatio="xMidYMid meet">
<metadata>
Created by potrace 1.11, written by Peter Selinger 2001-2013
</metadata>
<g transform="translate(0.000000,16.000000) scale(0.008989,-0.008989)"
fill="#000000" stroke="none">
<path d="M565 1681 c-45 -27 -62 -51 -76 -104 -11 -38 -11 -56 0 -94 12 -49
50 -98 83 -109 14 -4 18 -16 18 -54 0 -47 -3 -52 -97 -159 l-98 -111 -26 -118
-25 -117 -52 -3 c-44 -3 -52 -6 -52 -23 0 -18 -8 -19 -120 -19 l-120 0 0 -25
0 -25 312 -2 312 -3 122 -345 c68 -190 124 -349 126 -354 4 -9 153 47 170 63
4 3 3 12 -1 20 -8 12 -19 10 -70 -9 -34 -12 -63 -21 -65 -19 -5 6 -226 634
-226 642 0 4 30 7 67 7 63 0 72 -3 155 -52 48 -29 88 -55 88 -58 0 -3 -20 -70
-45 -150 -24 -79 -43 -145 -42 -146 15 -9 173 -52 179 -48 24 15 3 35 -54 52
-74 22 -72 6 -16 187 33 105 38 131 27 138 -8 5 -39 24 -69 42 l-55 35 433 0
432 0 0 25 0 25 -477 0 -478 1 -37 22 c-30 19 -35 26 -26 41 8 14 7 21 -3 27
-57 32 -57 32 -2 95 28 33 65 72 82 88 17 17 31 33 31 38 0 4 -52 49 -115 100
-114 91 -115 92 -115 134 0 36 4 43 29 54 44 18 78 60 92 113 37 137 -89 264
-196 198z m104 -36 c33 -17 61 -70 61 -115 0 -65 -52 -130 -105 -130 -79 0
-129 111 -89 196 27 57 80 77 133 49z m69 -499 c39 -32 72 -62 72 -66 0 -4
-36 -45 -80 -91 l-79 -84 -1 75 c0 41 -3 113 -7 160 -5 72 -4 83 8 74 8 -6 47
-37 87 -68z m-139 -213 l1 -163 -110 0 c-86 0 -110 3 -110 14 0 21 50 238 58
251 4 7 39 48 77 91 l70 79 6 -55 c4 -30 7 -128 8 -217z m111 -89 c0 -2 -9 0
-20 6 -11 6 -20 13 -20 16 0 2 9 0 20 -6 11 -6 20 -13 20 -16z m-15 -54 l30
-20 -32 0 c-18 0 -33 2 -33 4 0 2 -3 11 -6 20 -8 21 5 20 41 -4z"/>
<path d="M1552 998 c-55 -122 -69 -163 -60 -170 7 -4 -67 -8 -164 -8 -171 0
-178 -1 -178 -20 0 -19 7 -20 185 -20 l185 0 0 25 c0 14 32 95 70 182 54 119
68 158 58 165 -7 4 -15 8 -19 8 -3 0 -38 -73 -77 -162z"/>
</g>
</svg>
